<svg version="1.1" xmlns="http://www.w3.org/2000/svg" xmlns:xlink="http://www.w3.org/1999/xlink" width="64" height="64" viewBox="0,0,53.48362,39.27589">
  <g transform="translate(-214.1772,-162.90956)">
    <g data-paper-data="{&quot;isPaintingLayer&quot;:true}" fill-rule="nonzero" stroke-linejoin="miter" stroke-miterlimit="10" stroke-dasharray="" stroke-dashoffset="0" style="mix-blend-mode:normal">
      <g>
        <path d="M234.10675,176.29189c0,5.33906 -4.23753,9.66722 -9.46477,9.66722c-5.22725,0 -9.46477,-4.32816 -9.46477,-9.66722c0,-5.33906 4.23752,-9.66723 9.46477,-9.66723c5.22725,0 9.46477,4.32817 9.46477,9.66723z" fill="none" stroke="#000000" stroke-width="2" stroke-linecap="butt" />
        <path d="M225.06837,172.49585c0,-0.9665 0.7835,-1.75 1.75,-1.75c0.9665,0 1.75,0.7835 1.75,1.75c0,0.9665 -0.7835,1.75 -1.75,1.75c-0.9665,0 -1.75,-0.7835 -1.75,-1.75z" fill="#000000" stroke="none" stroke-width="0.5" stroke-linecap="butt" />
        <path d="M231.27238,182.2137c0,0 -5.55834,-2.62736 -5.36506,-4.25156c0.1673,-1.40581 7.79452,-1.51841 7.79452,-1.51841" fill="none" stroke="#000000" stroke-width="2" stroke-linecap="round" />
      </g>
      <path d="M236.89945,192.64873c2.34105,-0.07656 8.3892,-5.39118 9.33447,-7.3743c0.49463,-1.03772 0.86303,-4.84861 2.11847,-5.26709c1.78886,-0.59628 2.53421,-0.22361 3.13049,1.56525c1.60761,4.82281 -9.87057,14.07717 -13.75388,14.99919c-2.28348,0.54217 -4.92012,0.17263 -7.14087,0.04963c-0.51851,-0.02872 -2.95501,-0.26078 -4.70797,-0.58282c0.1038,1.27006 0.32354,2.47949 0.72715,3.55443l0.10195,0.84243c0,0 0,1.75 -1.75,1.75c-1.61793,0 -1.74003,-1.49583 -1.74925,-1.7216c-1.33695,-4.21695 -0.73476,-9.46196 -0.50603,-13.82815c0,0 0.09198,-1.74759 1.83956,-1.65561c1.74758,0.09198 1.65561,1.83956 1.65561,1.83956c-0.07099,1.34232 -0.2096,2.84996 -0.30263,4.3999c3.3721,-2.47129 7.02418,-4.21956 10.9134,-5.96231c1.89786,-0.85043 4.05077,-1.30192 5.44663,-2.58837c0.16545,-0.62761 0.69128,-1.02199 0.69128,-1.02199l0.0945,0.06334c0.00708,-0.0118 0.01412,-0.02364 0.02112,-0.03554l0.06839,0.09554l2.81576,1.88732c-2.14971,2.86684 -4.49186,3.35211 -7.70809,4.79443c-2.49509,1.11892 -4.90235,2.22642 -7.18636,3.55998c2.27102,0.26477 4.47433,0.68165 5.84628,0.63678z" fill="#000000" stroke="none" stroke-width="0.5" stroke-linecap="butt" />
      <path d="M263.59882,167.95184c0.28661,0.11081 0.35987,0.44384 0.35987,0.44384l-1.02999,0.65863c-0.90866,-1.14165 -1.96097,-2.29001 -2.73545,-3.52469c-0.05972,-0.0952 -0.12812,-0.20898 -0.19279,-0.33082c-0.32819,1.59281 -0.38962,3.47441 -1.06049,4.80767c-0.21967,0.43657 -0.47065,1.01738 -0.94898,1.1176c-0.68321,0.14316 -2.41411,-2.01841 -2.92792,-2.49265c-0.22828,-0.21071 -0.51825,-0.35308 -0.77912,-0.52521c0.34471,1.04843 0.08604,2.71258 0.17734,3.5645c0,0 0.0639,0.60118 -0.53728,0.66509c-0.60118,0.06391 -0.6651,-0.53728 -0.6651,-0.53728c-0.08597,-0.81515 -0.09345,-1.63687 -0.11857,-2.45616c-0.01176,-0.38372 -0.07323,-0.76486 -0.08452,-1.1486c-0.017,-0.57754 -0.38436,-1.30172 -0.00029,-1.73337c0.3047,-0.34245 0.92132,0.07161 1.3597,0.20553c0.89812,0.27438 1.97759,1.4488 2.6428,2.08801c0.26154,0.25132 0.49188,0.53783 0.68856,0.84259c0.06115,0.09474 -0.03071,0.38393 0.06896,0.33119c0.42446,-0.22465 0.10081,-0.95637 0.1918,-1.42791c0.30626,-1.58713 0.61834,-3.14836 1.12092,-4.68612l0.06023,-0.0534l-0.02272,-0.01452l0.35621,-0.55716c0.08335,-0.13036 0.21641,-0.22893 0.37946,-0.26479c0.3261,-0.07174 0.64861,0.13445 0.72036,0.46055l0.11172,0.5078c0.88716,1.40929 1.82478,2.73114 2.86529,4.05969z" fill="#ff0000" stroke="none" stroke-width="0.5" stroke-linecap="butt" />
      <path d="M267.42512,174.73335c0.46069,0.35664 0.10405,0.81734 0.10405,0.81734l-0.74622,0.65239c-1.60946,0.09493 -2.67497,-0.90771 -3.94265,-1.75494c-0.29329,-0.19601 -1.46028,-0.75608 -1.67792,-1.15996c0.33889,1.13604 0.38551,2.63262 0.50239,3.8315c0.04009,0.41122 0.29375,0.87449 0.09366,1.23597c-0.22152,0.40018 -0.71596,0.68426 -1.17246,0.71293c-1.17895,0.07405 -3.13891,-1.93418 -3.95132,-2.63241c-0.43279,-0.37196 -0.72582,-1.22986 -1.28742,-1.12852c-0.1081,0.01951 -0.63824,1.69654 -0.66175,1.91932c-0.04094,0.38792 0.32109,1.27077 0.40386,1.51492c0,0 0.18549,0.5523 -0.3668,0.73779c-0.55229,0.18549 -0.73779,-0.3668 -0.73779,-0.3668c-0.36807,-1.10527 -0.77883,-4.48709 1.05316,-4.92864c1.17798,-0.28392 3.29794,2.13823 4.15671,2.78378c0.24313,0.18277 0.47819,0.37669 0.72855,0.54943c0.23397,0.16144 0.80182,0.62004 0.78365,0.33636c-0.12074,-1.88493 -0.72586,-3.38672 -0.37761,-5.38021c2.61135,-0.45871 3.89101,2.84088 6.36174,2.5679l-0.08317,-0.2041c0,0 0.35665,-0.46069 0.81734,-0.10405z" fill="#ff0000" stroke="none" stroke-width="0.5" stroke-linecap="butt" />
      <path d="M251.12799,171.28978c1.93069,3.38825 0.80662,7.66734 -2.51067,9.5576c-3.3173,1.89026 -7.57164,0.67589 -9.50233,-2.71237c-1.93069,-3.38825 -0.80663,-7.66734 2.51067,-9.5576c3.3173,-1.89026 7.57164,-0.67588 9.50233,2.71237z" fill="none" stroke="#545454" stroke-width="1" stroke-linecap="butt" />
      <path d="M244.01937,172.14917c-0.3495,-0.61336 -0.1356,-1.39391 0.47775,-1.74341c0.61336,-0.3495 1.39391,-0.1356 1.74341,0.47775c0.3495,0.61336 0.13561,1.39391 -0.47775,1.74341c-0.61336,0.3495 -1.39391,0.1356 -1.74341,-0.47775z" fill="#545454" stroke="none" stroke-width="0.5" stroke-linecap="butt" />
      <path d="M251.47067,176.07281c0,0 -4.47752,0.34262 -4.94219,-0.75802c-0.4022,-0.95265 4.39745,-3.78223 4.39745,-3.78223" fill="none" stroke="#545454" stroke-width="1" stroke-linecap="round" />
      <path d="M249.51153,176.3854c-0.5,0 -0.5,-0.5 -0.5,-0.5l0.01493,0.04362c-0.30147,-1.23252 -0.89813,-0.92686 -1.88876,-1.56878c0,0 -0.41602,-0.27735 -0.13867,-0.69338c0.27735,-0.41602 0.69337,-0.13868 0.69337,-0.13868c1.14559,0.79414 1.90104,0.57462 2.3042,2.1583l0.01493,0.19891c0,0 0,0.5 -0.5,0.5z" fill="#545454" stroke="none" stroke-width="0.5" stroke-linecap="butt" />
    </g>
  </g>
</svg>
